<svg width="189" height="54" viewBox="0 0 189 54" fill="none" xmlns="http://www.w3.org/2000/svg">
<path d="M18.9898 40.336C17.1231 40.336 15.4618 39.9067 14.0058 39.048C12.5498 38.1707 11.4111 36.976 10.5898 35.464C9.76844 33.9333 9.35777 32.1787 9.35777 30.2C9.35777 28.2213 9.76844 26.476 10.5898 24.964C11.4111 23.4333 12.5404 22.2387 13.9778 21.38C15.4151 20.5027 17.0671 20.064 18.9338 20.064C20.1471 20.064 21.3044 20.288 22.4058 20.736C23.5071 21.1653 24.4871 21.772 25.3458 22.556C26.2231 23.3213 26.8951 24.2173 27.3618 25.244L24.8978 26.364C24.5431 25.5987 24.0578 24.936 23.4418 24.376C22.8258 23.816 22.1258 23.3773 21.3418 23.06C20.5764 22.7427 19.7738 22.584 18.9338 22.584C17.6271 22.584 16.4604 22.9107 15.4338 23.564C14.4071 24.2173 13.6044 25.1133 13.0258 26.252C12.4471 27.3907 12.1578 28.7067 12.1578 30.2C12.1578 31.6933 12.4471 33.0187 13.0258 34.176C13.6231 35.3333 14.4351 36.2387 15.4618 36.892C16.5071 37.5267 17.6924 37.844 19.0178 37.844C19.8764 37.844 20.6884 37.676 21.4538 37.34C22.2191 36.9853 22.9004 36.5093 23.4978 35.912C24.1138 35.296 24.6084 34.596 24.9818 33.812L27.4458 34.904C26.9791 35.968 26.3164 36.9107 25.4578 37.732C24.5991 38.5533 23.6098 39.1973 22.4898 39.664C21.3884 40.112 20.2218 40.336 18.9898 40.336ZM36.5368 40.336C35.1368 40.336 33.9048 40.028 32.8408 39.412C31.7768 38.7773 30.9368 37.9093 30.3208 36.808C29.7235 35.7067 29.4248 34.4373 29.4248 33C29.4248 31.5627 29.7235 30.2933 30.3208 29.192C30.9181 28.0907 31.7488 27.232 32.8128 26.616C33.8768 25.9813 35.0995 25.664 36.4808 25.664C37.8621 25.664 39.0848 25.9813 40.1488 26.616C41.2128 27.232 42.0435 28.0907 42.6408 29.192C43.2381 30.2933 43.5368 31.5627 43.5368 33C43.5368 34.4373 43.2381 35.7067 42.6408 36.808C42.0435 37.9093 41.2128 38.7773 40.1488 39.412C39.1035 40.028 37.8995 40.336 36.5368 40.336ZM36.5368 37.9C37.3768 37.9 38.1235 37.6947 38.7768 37.284C39.4301 36.8547 39.9341 36.276 40.2888 35.548C40.6621 34.82 40.8488 33.9707 40.8488 33C40.8488 32.0293 40.6621 31.18 40.2888 30.452C39.9341 29.724 39.4208 29.1547 38.7488 28.744C38.0768 28.3147 37.3208 28.1 36.4808 28.1C35.6221 28.1 34.8661 28.3147 34.2128 28.744C33.5595 29.1547 33.0461 29.724 32.6728 30.452C32.2995 31.18 32.1128 32.0293 32.1128 33C32.1128 33.9707 32.2995 34.82 32.6728 35.548C33.0461 36.276 33.5688 36.8547 34.2408 37.284C34.9128 37.6947 35.6781 37.9 36.5368 37.9ZM46.451 40V26H48.943L49.055 27.932C49.503 27.1853 50.063 26.6253 50.735 26.252C51.407 25.86 52.1817 25.664 53.059 25.664C54.179 25.664 55.131 25.9253 55.915 26.448C56.699 26.952 57.2683 27.7267 57.623 28.772C58.0337 27.764 58.6123 26.9987 59.359 26.476C60.1057 25.9347 60.9923 25.664 62.019 25.664C63.6057 25.664 64.847 26.1867 65.743 27.232C66.639 28.2587 67.0777 29.8453 67.059 31.992V40H64.427V32.832C64.427 31.5627 64.287 30.6013 64.007 29.948C63.7457 29.276 63.391 28.8093 62.943 28.548C62.495 28.2867 61.9723 28.1467 61.375 28.128C60.3297 28.128 59.5177 28.5293 58.939 29.332C58.379 30.1347 58.099 31.264 58.099 32.72V40H55.439V32.832C55.439 31.5627 55.3083 30.6013 55.047 29.948C54.7857 29.276 54.4217 28.8093 53.955 28.548C53.507 28.2867 52.9843 28.1467 52.387 28.128C51.3417 28.128 50.5297 28.5293 49.951 29.332C49.391 30.1347 49.111 31.264 49.111 32.72V40H46.451ZM70.6268 40V26H73.2868V40H70.6268ZM71.9708 23.032C71.5415 23.032 71.1681 22.8733 70.8508 22.556C70.5335 22.22 70.3748 21.8373 70.3748 21.408C70.3748 20.96 70.5335 20.5867 70.8508 20.288C71.1681 19.9707 71.5415 19.812 71.9708 19.812C72.4188 19.812 72.7921 19.9707 73.0908 20.288C73.4081 20.5867 73.5668 20.96 73.5668 21.408C73.5668 21.8373 73.4081 22.22 73.0908 22.556C72.7921 22.8733 72.4188 23.032 71.9708 23.032ZM77.1854 40V26H79.6774L79.8454 28.576V40H77.1854ZM86.8734 40V32.832H89.5334V40H86.8734ZM86.8734 32.832C86.8734 31.5627 86.724 30.6013 86.4254 29.948C86.1454 29.276 85.744 28.8093 85.2214 28.548C84.7174 28.2867 84.1294 28.1467 83.4574 28.128C82.3187 28.128 81.432 28.5293 80.7974 29.332C80.1627 30.1347 79.8454 31.264 79.8454 32.72H78.6974C78.6974 31.2453 78.912 29.9853 79.3414 28.94C79.7894 27.876 80.4147 27.064 81.2174 26.504C82.0387 25.944 83.0094 25.664 84.1294 25.664C85.2307 25.664 86.1827 25.888 86.9854 26.336C87.8067 26.784 88.432 27.484 88.8614 28.436C89.3094 29.3693 89.5334 30.6013 89.5334 32.132V32.832H86.8734ZM98.6767 45.964C97.7433 45.964 96.894 45.8707 96.1287 45.684C95.3633 45.516 94.7193 45.32 94.1967 45.096C93.674 44.872 93.282 44.676 93.0207 44.508L94.0287 42.352C94.2713 42.5013 94.6167 42.6693 95.0647 42.856C95.5127 43.0613 96.0353 43.2293 96.6327 43.36C97.23 43.5093 97.8927 43.584 98.6207 43.584C99.4793 43.584 100.245 43.4067 100.917 43.052C101.589 42.716 102.111 42.184 102.485 41.456C102.877 40.728 103.073 39.7947 103.073 38.656V26H105.733V38.6C105.733 40.2053 105.425 41.5493 104.809 42.632C104.211 43.7333 103.381 44.564 102.317 45.124C101.271 45.684 100.058 45.964 98.6767 45.964ZM98.4247 39.804C97.1553 39.804 96.0447 39.5147 95.0927 38.936C94.1593 38.3387 93.422 37.5173 92.8807 36.472C92.358 35.408 92.0967 34.1853 92.0967 32.804C92.0967 31.3667 92.358 30.116 92.8807 29.052C93.422 27.988 94.1593 27.1573 95.0927 26.56C96.0447 25.9627 97.1553 25.664 98.4247 25.664C99.582 25.664 100.59 25.9627 101.449 26.56C102.326 27.1573 102.998 27.9973 103.465 29.08C103.95 30.144 104.193 31.3947 104.193 32.832C104.193 34.2133 103.95 35.436 103.465 36.5C102.998 37.5453 102.326 38.3573 101.449 38.936C100.59 39.5147 99.582 39.804 98.4247 39.804ZM99.0967 37.564C99.8807 37.564 100.562 37.3587 101.141 36.948C101.719 36.5187 102.177 35.9493 102.513 35.24C102.849 34.512 103.017 33.6813 103.017 32.748C103.017 31.8147 102.849 30.9933 102.513 30.284C102.177 29.5747 101.71 29.024 101.113 28.632C100.534 28.2213 99.8527 28.016 99.0687 28.016C98.2473 28.016 97.5193 28.2213 96.8847 28.632C96.2687 29.024 95.7833 29.5747 95.4287 30.284C95.074 30.9933 94.8967 31.8147 94.8967 32.748C94.8967 33.6813 95.074 34.512 95.4287 35.24C95.802 35.9493 96.2967 36.5187 96.9127 36.948C97.5473 37.3587 98.2753 37.564 99.0967 37.564Z" fill="white"/>
<path d="M117.998 40.42C116.715 40.42 115.781 40.1983 115.198 39.755C114.638 39.2883 114.358 38.7167 114.358 38.04C114.358 37.5267 114.521 37.0833 114.848 36.71C115.175 36.3133 115.641 36.115 116.248 36.115C116.715 36.115 117.1 36.255 117.403 36.535C117.706 36.7917 117.858 37.1883 117.858 37.725C117.858 37.9817 117.8 38.25 117.683 38.53C117.59 38.81 117.45 39.0433 117.263 39.23L117.368 39.475C117.811 39.475 118.29 39.4283 118.803 39.335C119.34 39.2417 119.83 39.0783 120.273 38.845C120.74 38.5883 121.125 38.2383 121.428 37.795C121.731 37.3517 121.883 36.78 121.883 36.08C121.883 35.5667 121.813 35.1 121.673 34.68C121.533 34.26 121.335 33.8633 121.078 33.49C120.821 33.0933 120.518 32.7083 120.168 32.335C119.841 31.9617 119.48 31.5417 119.083 31.075C118.616 30.5383 118.196 29.9667 117.823 29.36C117.473 28.7533 117.298 27.9833 117.298 27.05C117.298 26.2333 117.45 25.4867 117.753 24.81C118.056 24.1333 118.488 23.55 119.048 23.06C119.608 22.57 120.261 22.1967 121.008 21.94C121.778 21.66 122.618 21.52 123.528 21.52C124.788 21.52 125.698 21.7533 126.258 22.22C126.818 22.6867 127.098 23.2467 127.098 23.9C127.098 24.4133 126.935 24.8683 126.608 25.265C126.281 25.6383 125.815 25.825 125.208 25.825C124.741 25.825 124.356 25.6967 124.053 25.44C123.75 25.16 123.598 24.7517 123.598 24.215C123.598 23.9583 123.645 23.69 123.738 23.41C123.855 23.13 124.006 22.8967 124.193 22.71L124.088 22.465C123.668 22.465 123.213 22.5117 122.723 22.605C122.233 22.6983 121.778 22.8733 121.358 23.13C120.961 23.3867 120.623 23.7367 120.343 24.18C120.086 24.6233 119.958 25.195 119.958 25.895C119.958 26.4083 120.028 26.875 120.168 27.295C120.308 27.715 120.506 28.1233 120.763 28.52C121.02 28.8933 121.311 29.2783 121.638 29.675C121.988 30.0483 122.361 30.4567 122.758 30.9C123.225 31.4367 123.633 32.0083 123.983 32.615C124.356 33.2217 124.543 33.9917 124.543 34.925C124.543 35.7417 124.38 36.4883 124.053 37.165C123.726 37.8417 123.271 38.425 122.688 38.915C122.105 39.3817 121.405 39.7433 120.588 40C119.795 40.28 118.931 40.42 117.998 40.42ZM133.612 38.985C134.312 38.985 134.942 38.8217 135.502 38.495C136.085 38.1683 136.599 37.725 137.042 37.165C137.485 36.605 137.859 35.9517 138.162 35.205C138.489 34.435 138.757 33.63 138.967 32.79C139.224 31.7633 139.434 30.9117 139.597 30.235C139.76 29.535 139.889 28.9517 139.982 28.485C140.075 28.0183 140.134 27.6333 140.157 27.33C140.204 27.0267 140.227 26.735 140.227 26.455C140.227 25.405 140.029 24.565 139.632 23.935C139.259 23.2817 138.582 22.955 137.602 22.955C136.902 22.955 136.26 23.1183 135.677 23.445C135.117 23.7717 134.615 24.215 134.172 24.775C133.729 25.335 133.344 26 133.017 26.77C132.714 27.5167 132.457 28.31 132.247 29.15C131.99 30.1767 131.78 31.04 131.617 31.74C131.454 32.4167 131.325 32.9883 131.232 33.455C131.139 33.9217 131.069 34.3067 131.022 34.61C130.999 34.9133 130.987 35.205 130.987 35.485C130.987 36.535 131.174 37.3867 131.547 38.04C131.944 38.67 132.632 38.985 133.612 38.985ZM133.507 40.42C131.734 40.42 130.404 39.86 129.517 38.74C128.654 37.5967 128.222 36.0567 128.222 34.12C128.222 32.79 128.432 31.39 128.852 29.92C129.272 28.4267 129.879 27.0617 130.672 25.825C131.489 24.565 132.48 23.5383 133.647 22.745C134.837 21.9283 136.19 21.52 137.707 21.52C139.48 21.52 140.799 22.0917 141.662 23.235C142.549 24.355 142.992 25.8833 142.992 27.82C142.992 29.15 142.782 30.5617 142.362 32.055C141.942 33.525 141.324 34.89 140.507 36.15C139.714 37.3867 138.722 38.4133 137.532 39.23C136.365 40.0233 135.024 40.42 133.507 40.42ZM150.625 38.985C151.325 38.985 151.955 38.8217 152.515 38.495C153.099 38.1683 153.612 37.725 154.055 37.165C154.499 36.605 154.872 35.9517 155.175 35.205C155.502 34.435 155.77 33.63 155.98 32.79C156.237 31.7633 156.447 30.9117 156.61 30.235C156.774 29.535 156.902 28.9517 156.995 28.485C157.089 28.0183 157.147 27.6333 157.17 27.33C157.217 27.0267 157.24 26.735 157.24 26.455C157.24 25.405 157.042 24.565 156.645 23.935C156.272 23.2817 155.595 22.955 154.615 22.955C153.915 22.955 153.274 23.1183 152.69 23.445C152.13 23.7717 151.629 24.215 151.185 24.775C150.742 25.335 150.357 26 150.03 26.77C149.727 27.5167 149.47 28.31 149.26 29.15C149.004 30.1767 148.794 31.04 148.63 31.74C148.467 32.4167 148.339 32.9883 148.245 33.455C148.152 33.9217 148.082 34.3067 148.035 34.61C148.012 34.9133 148 35.205 148 35.485C148 36.535 148.187 37.3867 148.56 38.04C148.957 38.67 149.645 38.985 150.625 38.985ZM150.52 40.42C148.747 40.42 147.417 39.86 146.53 38.74C145.667 37.5967 145.235 36.0567 145.235 34.12C145.235 32.79 145.445 31.39 145.865 29.92C146.285 28.4267 146.892 27.0617 147.685 25.825C148.502 24.565 149.494 23.5383 150.66 22.745C151.85 21.9283 153.204 21.52 154.72 21.52C156.494 21.52 157.812 22.0917 158.675 23.235C159.562 24.355 160.005 25.8833 160.005 27.82C160.005 29.15 159.795 30.5617 159.375 32.055C158.955 33.525 158.337 34.89 157.52 36.15C156.727 37.3867 155.735 38.4133 154.545 39.23C153.379 40.0233 152.037 40.42 150.52 40.42ZM174.289 40.42C173.589 40.42 173.064 40.2217 172.714 39.825C172.364 39.405 172.189 38.9267 172.189 38.39C172.189 38.1333 172.212 37.865 172.259 37.585C172.305 37.305 172.364 37.0483 172.434 36.815L175.514 25.58C175.584 25.2767 175.619 25.0083 175.619 24.775C175.619 24.0983 175.292 23.76 174.639 23.76C174.032 23.76 173.32 24.075 172.504 24.705C171.71 25.3117 170.917 26.1283 170.124 27.155C169.33 28.1817 168.595 29.3483 167.919 30.655C167.265 31.9617 166.764 33.315 166.414 34.715L165.084 40H162.284L166.239 24.075H163.089L163.369 22.85L169.599 21.52L167.779 28.73L168.059 28.835C168.549 27.925 169.05 27.0383 169.564 26.175C170.1 25.2883 170.672 24.5067 171.279 23.83C171.885 23.13 172.539 22.57 173.239 22.15C173.939 21.73 174.709 21.52 175.549 21.52C176.552 21.52 177.275 21.8 177.719 22.36C178.185 22.8967 178.419 23.585 178.419 24.425C178.419 24.9383 178.325 25.5333 178.139 26.21L174.919 38.145L175.549 38.425L179.574 34.4L180.414 35.065L177.929 37.97C177.112 38.95 176.424 39.6033 175.864 39.93C175.304 40.2567 174.779 40.42 174.289 40.42Z" fill="#D3F702"/>
</svg>
